<mxfile host="app.diagrams.net" agent="Mozilla/5.0 (Windows NT 10.0; Win64; x64) AppleWebKit/537.36 (KHTML, like Gecko) Chrome/129.0.0.0 Safari/537.36" version="24.7.17">
  <diagram name="Page-1" id="iJ1wZjcDHIdjZE5Le1Jh">
    <mxGraphModel dx="2880" dy="1483" grid="1" gridSize="10" guides="1" tooltips="1" connect="1" arrows="1" fold="1" page="1" pageScale="1" pageWidth="827" pageHeight="1169" math="0" shadow="0">
      <root>
        <mxCell id="0" />
        <mxCell id="1" parent="0" />
        <mxCell id="6wuWO1VGdP8oSkNfxpHv-1" value="" style="shape=umlActor;verticalLabelPosition=bottom;verticalAlign=top;html=1;outlineConnect=0;" parent="1" vertex="1">
          <mxGeometry x="384" y="30" width="40" height="80" as="geometry" />
        </mxCell>
        <mxCell id="6wuWO1VGdP8oSkNfxpHv-22" style="edgeStyle=orthogonalEdgeStyle;rounded=0;orthogonalLoop=1;jettySize=auto;html=1;" parent="1" source="6wuWO1VGdP8oSkNfxpHv-2" target="6wuWO1VGdP8oSkNfxpHv-20" edge="1">
          <mxGeometry relative="1" as="geometry" />
        </mxCell>
        <mxCell id="6wuWO1VGdP8oSkNfxpHv-2" value="" style="outlineConnect=0;dashed=0;verticalLabelPosition=bottom;verticalAlign=top;align=center;html=1;shape=mxgraph.aws3.ec2;fillColor=#F58534;gradientColor=none;" parent="1" vertex="1">
          <mxGeometry x="550" y="280" width="80" height="100" as="geometry" />
        </mxCell>
        <mxCell id="6wuWO1VGdP8oSkNfxpHv-3" value="" style="outlineConnect=0;dashed=0;verticalLabelPosition=bottom;verticalAlign=top;align=center;html=1;shape=mxgraph.aws3.ec2;fillColor=#F58534;gradientColor=none;" parent="1" vertex="1">
          <mxGeometry x="375.75" y="538" width="76.5" height="93" as="geometry" />
        </mxCell>
        <mxCell id="6wuWO1VGdP8oSkNfxpHv-16" style="edgeStyle=orthogonalEdgeStyle;rounded=0;orthogonalLoop=1;jettySize=auto;html=1;" parent="1" source="6wuWO1VGdP8oSkNfxpHv-4" target="6wuWO1VGdP8oSkNfxpHv-3" edge="1">
          <mxGeometry relative="1" as="geometry" />
        </mxCell>
        <mxCell id="6wuWO1VGdP8oSkNfxpHv-4" value="" style="outlineConnect=0;dashed=0;verticalLabelPosition=bottom;verticalAlign=top;align=center;html=1;shape=mxgraph.aws3.ec2;fillColor=#F58534;gradientColor=none;" parent="1" vertex="1">
          <mxGeometry x="290" y="283.5" width="76.5" height="93" as="geometry" />
        </mxCell>
        <mxCell id="6wuWO1VGdP8oSkNfxpHv-5" value="&lt;font style=&quot;font-size: 14px;&quot;&gt;&lt;b&gt;Orchestrator&lt;/b&gt;&lt;/font&gt;" style="text;html=1;align=center;verticalAlign=middle;whiteSpace=wrap;rounded=0;" parent="1" vertex="1">
          <mxGeometry x="306.5" y="250" width="60" height="30" as="geometry" />
        </mxCell>
        <mxCell id="6wuWO1VGdP8oSkNfxpHv-6" value="&lt;b&gt;&lt;font style=&quot;font-size: 14px;&quot;&gt;Image Processor SubSystem&lt;/font&gt;&lt;/b&gt;" style="text;html=1;align=center;verticalAlign=middle;whiteSpace=wrap;rounded=0;" parent="1" vertex="1">
          <mxGeometry x="384" y="650" width="60" height="30" as="geometry" />
        </mxCell>
        <mxCell id="6wuWO1VGdP8oSkNfxpHv-7" value="&lt;font style=&quot;font-size: 14px;&quot;&gt;&lt;b&gt;Filter Managers&lt;/b&gt;&lt;/font&gt;&lt;div&gt;&lt;font style=&quot;font-size: 14px;&quot;&gt;&lt;b&gt;SubSystem&lt;/b&gt;&lt;/font&gt;&lt;/div&gt;" style="text;html=1;align=center;verticalAlign=middle;whiteSpace=wrap;rounded=0;" parent="1" vertex="1">
          <mxGeometry x="560" y="240" width="60" height="30" as="geometry" />
        </mxCell>
        <mxCell id="6wuWO1VGdP8oSkNfxpHv-13" style="edgeStyle=orthogonalEdgeStyle;rounded=0;orthogonalLoop=1;jettySize=auto;html=1;entryX=0;entryY=0.5;entryDx=0;entryDy=0;entryPerimeter=0;" parent="1" source="6wuWO1VGdP8oSkNfxpHv-1" target="6wuWO1VGdP8oSkNfxpHv-4" edge="1">
          <mxGeometry relative="1" as="geometry" />
        </mxCell>
        <mxCell id="6wuWO1VGdP8oSkNfxpHv-14" style="edgeStyle=orthogonalEdgeStyle;rounded=0;orthogonalLoop=1;jettySize=auto;html=1;entryX=0;entryY=0.5;entryDx=0;entryDy=0;entryPerimeter=0;" parent="1" source="6wuWO1VGdP8oSkNfxpHv-4" target="6wuWO1VGdP8oSkNfxpHv-2" edge="1">
          <mxGeometry relative="1" as="geometry" />
        </mxCell>
        <mxCell id="6wuWO1VGdP8oSkNfxpHv-15" value="&lt;b&gt;User&lt;/b&gt;" style="text;html=1;align=center;verticalAlign=middle;whiteSpace=wrap;rounded=0;" parent="1" vertex="1">
          <mxGeometry x="413" y="55" width="60" height="30" as="geometry" />
        </mxCell>
        <mxCell id="6wuWO1VGdP8oSkNfxpHv-18" value="" style="outlineConnect=0;dashed=0;verticalLabelPosition=bottom;verticalAlign=top;align=center;html=1;shape=mxgraph.aws3.s3;fillColor=#E05243;gradientColor=none;" parent="1" vertex="1">
          <mxGeometry x="715" y="538" width="76.5" height="93" as="geometry" />
        </mxCell>
        <mxCell id="6wuWO1VGdP8oSkNfxpHv-19" value="" style="outlineConnect=0;dashed=0;verticalLabelPosition=bottom;verticalAlign=top;align=center;html=1;shape=mxgraph.aws3.s3;fillColor=#E05243;gradientColor=none;" parent="1" vertex="1">
          <mxGeometry x="32.63" y="538" width="76.5" height="93" as="geometry" />
        </mxCell>
        <mxCell id="6wuWO1VGdP8oSkNfxpHv-20" value="" style="outlineConnect=0;dashed=0;verticalLabelPosition=bottom;verticalAlign=top;align=center;html=1;shape=mxgraph.aws3.dynamo_db;fillColor=#2E73B8;gradientColor=none;" parent="1" vertex="1">
          <mxGeometry x="717.25" y="289.5" width="72" height="81" as="geometry" />
        </mxCell>
        <mxCell id="6wuWO1VGdP8oSkNfxpHv-23" style="edgeStyle=orthogonalEdgeStyle;rounded=0;orthogonalLoop=1;jettySize=auto;html=1;entryX=0;entryY=0.5;entryDx=0;entryDy=0;entryPerimeter=0;" parent="1" source="6wuWO1VGdP8oSkNfxpHv-2" target="6wuWO1VGdP8oSkNfxpHv-18" edge="1">
          <mxGeometry relative="1" as="geometry" />
        </mxCell>
        <mxCell id="6wuWO1VGdP8oSkNfxpHv-24" value="&lt;b&gt;&lt;font style=&quot;font-size: 14px;&quot;&gt;Image Storage&lt;/font&gt;&lt;/b&gt;" style="text;html=1;align=center;verticalAlign=middle;whiteSpace=wrap;rounded=0;" parent="1" vertex="1">
          <mxGeometry x="40.879999999999995" y="640" width="60" height="30" as="geometry" />
        </mxCell>
        <mxCell id="6wuWO1VGdP8oSkNfxpHv-25" value="&lt;b&gt;&lt;font style=&quot;font-size: 14px;&quot;&gt;Filter Storage&lt;/font&gt;&lt;/b&gt;" style="text;html=1;align=center;verticalAlign=middle;whiteSpace=wrap;rounded=0;" parent="1" vertex="1">
          <mxGeometry x="723.25" y="640" width="60" height="30" as="geometry" />
        </mxCell>
        <mxCell id="6wuWO1VGdP8oSkNfxpHv-26" value="&lt;b&gt;&lt;font style=&quot;font-size: 14px;&quot;&gt;Filters Meta Data&lt;/font&gt;&lt;/b&gt;" style="text;html=1;align=center;verticalAlign=middle;whiteSpace=wrap;rounded=0;" parent="1" vertex="1">
          <mxGeometry x="715" y="380" width="76.75" height="30" as="geometry" />
        </mxCell>
        <mxCell id="6wuWO1VGdP8oSkNfxpHv-27" value="&lt;b&gt;&lt;font style=&quot;font-size: 18px;&quot;&gt;User Journey&lt;/font&gt;&lt;/b&gt;" style="text;html=1;align=center;verticalAlign=middle;whiteSpace=wrap;rounded=0;" parent="1" vertex="1">
          <mxGeometry y="10" width="141.75" height="30" as="geometry" />
        </mxCell>
        <mxCell id="ioePu-NufEirpEZIWQK0-4" style="edgeStyle=orthogonalEdgeStyle;rounded=0;orthogonalLoop=1;jettySize=auto;html=1;" edge="1" parent="1" source="ioePu-NufEirpEZIWQK0-1" target="6wuWO1VGdP8oSkNfxpHv-19">
          <mxGeometry relative="1" as="geometry">
            <mxPoint x="30" y="590" as="targetPoint" />
            <Array as="points">
              <mxPoint x="70" y="330" />
            </Array>
          </mxGeometry>
        </mxCell>
        <mxCell id="ioePu-NufEirpEZIWQK0-1" value="" style="outlineConnect=0;dashed=0;verticalLabelPosition=bottom;verticalAlign=top;align=center;html=1;shape=mxgraph.aws3.ec2;fillColor=#F58534;gradientColor=none;" vertex="1" parent="1">
          <mxGeometry x="100" y="283.5" width="76.5" height="93" as="geometry" />
        </mxCell>
        <mxCell id="ioePu-NufEirpEZIWQK0-3" style="edgeStyle=orthogonalEdgeStyle;rounded=0;orthogonalLoop=1;jettySize=auto;html=1;entryX=0.5;entryY=1;entryDx=0;entryDy=0;entryPerimeter=0;" edge="1" parent="1" source="6wuWO1VGdP8oSkNfxpHv-4" target="ioePu-NufEirpEZIWQK0-1">
          <mxGeometry relative="1" as="geometry" />
        </mxCell>
        <mxCell id="ioePu-NufEirpEZIWQK0-6" value="&lt;font style=&quot;font-size: 14px;&quot;&gt;&lt;b&gt;Photo Manager&lt;/b&gt;&lt;/font&gt;" style="text;html=1;align=center;verticalAlign=middle;whiteSpace=wrap;rounded=0;" vertex="1" parent="1">
          <mxGeometry x="108.25" y="250" width="60" height="30" as="geometry" />
        </mxCell>
      </root>
    </mxGraphModel>
  </diagram>
</mxfile>
